<svg xmlns="http://www.w3.org/2000/svg" viewBox="0 0 512 512" role="img" aria-label="견적노트">
  <defs>
    <linearGradient id="bg" x1="96" y1="64" x2="420" y2="448" gradientUnits="userSpaceOnUse">
      <stop offset="0" stop-color="#64d8ff"/>
      <stop offset=".58" stop-color="#28b9e9"/>
      <stop offset="1" stop-color="#0878b8"/>
    </linearGradient>
    <linearGradient id="paper" x1="164" y1="122" x2="390" y2="410" gradientUnits="userSpaceOnUse">
      <stop offset="0" stop-color="#ffffff"/>
      <stop offset="1" stop-color="#e8f8ff"/>
    </linearGradient>
  </defs>
  <rect width="512" height="512" rx="112" fill="#f3fbff"/>
  <path d="M153 84c28 44 69 82 69 137 0 57-44 102-98 102S26 278 26 222c0-43 30-76 59-111 12-14 21-30 28-46 12-27 26-26 40 19z" fill="url(#bg)" opacity=".92"/>
  <path d="M178 93h170c31 0 56 25 56 56v258H128V149c0-31 25-56 56-56z" fill="url(#paper)"/>
  <path d="M348 93v74h74" fill="#bceeff"/>
  <path d="M186 178h150M186 236h150M186 294h96" stroke="#0b7fb9" stroke-width="22" stroke-linecap="round"/>
  <path d="M214 372l48 48 104-124" fill="none" stroke="#22b6e8" stroke-width="34" stroke-linecap="round" stroke-linejoin="round"/>
  <path d="M103 84l12 28 28 12-28 12-12 28-12-28-28-12 28-12 12-28z" fill="#ffffff" opacity=".92"/>
</svg>
