<svg xmlns="http://www.w3.org/2000/svg" viewBox="0 0 512 512">
  <rect width="512" height="512" rx="116" fill="#f7f7f4"/>
  <rect x="78" y="78" width="356" height="356" rx="96" fill="#ffffff"/>
  <path d="M155 140c70-42 158-27 209 32 44 51 51 124 14 183-33 53-93 80-151 67-69-15-116-74-117-144-1-57 27-108 45-138z" fill="#1e6f5c"/>
  <path d="M287 105c53 21 93 65 108 119 16 59 0 123-42 166-43 45-106 61-164 42 60-41 90-99 91-172 0-55 3-105 7-155z" fill="#f2c46b"/>
  <path d="M190 364c59-32 91-77 96-137 4-44 7-83 10-116 19 10 36 23 51 40-18 66-17 122 5 169-29 44-89 66-162 44z" fill="#2b9578"/>
  <circle cx="355" cy="132" r="28" fill="#ffffff" opacity=".88"/>
</svg>
